{"title":"The Big Bang Theory S04e06 - The Irish Pub Formulation [XviD - E","uid":5919248,"size":183019716,"categoryP":"video","categoryS":"tv_shows","magnet":"?xt=urn:btih:cc0f39065afa864b4257705ef60403cfacc0068a&amp;dn=The+Big+Bang+Theory+S04e06+-+The+Irish+Pub+Formulation+%5BXviD+-+E&amp;tr=udp%3A%2F%2Ftracker.openbittorrent.com%3A80&amp;tr=udp%3A%2F%2Fopen.demonii.com%3A1337&amp;tr=udp%3A%2F%2Ftracker.coppersurfer.tk%3A6969&amp;tr=udp%3A%2F%2Fexodus.desync.com%3A6969","seeders":2,"leechers":0,"uploader":"Cer8one","files":1,"time":1288343183,"description":"info: http://forum.tntvillage.scambioetico.org/tntforum/index.php?showtopic=228262\n\nEpisode 6: The Irish Pub Formulation\n\nImage\n\nComplete name : the.big.bang.theory.s04e06.hdtv.xvid-fqm.avi\nFormat : AVI\nFormat/Info : Audio Video Interleave\nFile size : 175 MiB\nDuration : 21mn 2s\nOverall bit rate : 1 160 Kbps\nWriting application : transcode-1.0.4\n\nVideo\nID : 0\nFormat : MPEG-4 Visual\nFormat profile : Advanced Simple@L5\nFormat settings, BVOP : Yes\nFormat settings, QPel : No\nFormat settings, GMC : No warppoints\nFormat settings, Matrix : Default (H.263)\nCodec ID : XVID\nCodec ID/Hint : XviD\nDuration : 21mn 2s\nBit rate : 986 Kbps\nWidth : 624 pixels\nHeight : 352 pixels\nDisplay aspect ratio : 16:9\nFrame rate : 23.976 fps\nColor space : YUV\nChroma subsampling : 4:2:0\nBit depth : 8 bits\nScan type : Progressive\nBits/(Pixel*Frame) : 0.187\nStream size : 148 MiB (85%)\nWriting library : XviD 1.2.1 (UTC 2008-12-04)\n\nAudio\nID : 1\nFormat : MPEG Audio\nFormat version : Version 1\nFormat profile : Layer 3\nCodec ID : 55\nCodec ID/Hint : MP3\nDuration : 21mn 2s\nBit rate mode : Variable\nBit rate : 128 Kbps\nChannel(s) : 2 channels\nSampling rate : 48.0 KHz\nBit depth : 16 bits\nStream size : 24.3 MiB (14%)\nAlignment : Aligned on interleaves\nInterleave, duration : 24 ms (0.58 video frame) \n\nScreenshot:\n &lt;a href=&quot;\nhttp://img18.imageshack.us/img18/5545/thumbs20101029083622.jpg&quot; rel=&quot;nofollow&quot; target=&quot;_NEW&quot;&gt;\nhttp://img18.imageshack.us/img18/5545/thumbs20101029083622.jpg&lt;/a&gt;","torrent":{"xt":"urn:btih:cc0f39065afa864b4257705ef60403cfacc0068a","amp;dn":"The+Big+Bang+Theory+S04e06+-+The+Irish+Pub+Formulation+%5BXviD+-+E","amp;tr":["udp%3A%2F%2Ftracker.openbittorrent.com%3A80","udp%3A%2F%2Fopen.demonii.com%3A1337","udp%3A%2F%2Ftracker.coppersurfer.tk%3A6969","udp%3A%2F%2Fexodus.desync.com%3A6969"],"infoHash":"cc0f39065afa864b4257705ef60403cfacc0068a","infoHashBuffer":{"type":"Buffer","data":[204,15,57,6,90,250,134,75,66,87,112,94,246,4,3,207,172,192,6,138]},"announce":[],"urlList":[]}}